# File units = meters
mtllib cube.mtl
g Part 1
v 0.0248551 0.0247957 0.05 
v 0.0248551 0.0247957 0 
v -0.0248551 0.0247957 0 
v -0.0248551 0.0247957 0.05 
v -0.0248551 -0.0247957 0 
v -0.0248551 -0.0247957 0.05 
v 0.0248551 -0.0247957 0 
v 0.0248551 -0.0247957 0.05 
v -0.0198551 -0.0197957 0.05 
v 0.0198551 -0.0197957 0.05 
v 0.0198551 0.0197957 0.05 
v -0.0198551 0.0197957 0.05 
v -0.0198551 0.0197957 0.005 
v 0.0198551 0.0197957 0.005 
v -0.0198551 -0.0197957 0.005 
v 0.0198551 -0.0197957 0.005 
vn 0 1 0 
vn -1 0 0 
vn 0 -1 0 
vn 1 0 0 
vn 0 0 -1 
vn 0 0 1 
vn 0 -1 0 
vn 1 0 0 
vn 0 1 0 
vn -1 0 0 
vn 0 0 1 
usemtl 0.615686_0.811765_0.929412_0.000000_0.000000
o mesh0
f 1//1 2//1 3//1 
f 3//1 4//1 1//1 
o mesh1
f 4//2 3//2 5//2 
f 5//2 6//2 4//2 
o mesh2
f 6//3 5//3 7//3 
f 7//3 8//3 6//3 
o mesh3
f 8//4 7//4 2//4 
f 2//4 1//4 8//4 
o mesh4
f 5//5 3//5 2//5 
f 2//5 7//5 5//5 
o mesh5
f 4//6 6//6 9//6 
f 6//6 8//6 10//6 
f 10//6 9//6 6//6 
f 8//6 1//6 11//6 
f 1//6 4//6 12//6 
f 11//6 10//6 8//6 
f 9//6 12//6 4//6 
f 12//6 11//6 1//6 
o mesh6
f 12//7 13//7 14//7 
f 14//7 11//7 12//7 
o mesh7
f 9//8 15//8 13//8 
f 13//8 12//8 9//8 
o mesh8
f 10//9 16//9 15//9 
f 15//9 9//9 10//9 
o mesh9
f 11//10 14//10 16//10 
f 16//10 10//10 11//10 
o mesh10
f 16//11 14//11 13//11 
f 13//11 15//11 16//11 
